<?xml version="1.0" encoding="utf-8"?>
<!-- Generator: Adobe Illustrator 20.0.0, SVG Export Plug-In . SVG Version: 6.00 Build 0)  -->
<svg version="1.1" id="レイヤー_1" xmlns="http://www.w3.org/2000/svg" xmlns:xlink="http://www.w3.org/1999/xlink" x="0px"
	 y="0px" width="30px" height="24.36px" viewBox="0 0 30 24.36" enable-background="new 0 0 30 24.36" xml:space="preserve">
<g>
	<path d="M9.435,24.36c11.321,0,17.512-9.371,17.512-17.497c0-0.266-0.005-0.531-0.017-0.795c1.201-0.867,2.246-1.95,3.07-3.184
		c-1.103,0.49-2.289,0.82-3.534,0.968c1.27-0.761,2.246-1.966,2.706-3.401c-1.19,0.704-2.506,1.217-3.908,1.492
		c-1.124-1.195-2.723-1.942-4.493-1.942c-3.399,0-6.156,2.754-6.156,6.148c0,0.483,0.054,0.952,0.16,1.402
		C9.66,7.295,5.124,4.847,2.088,1.127c-0.529,0.908-0.833,1.964-0.833,3.09c0,2.134,1.086,4.017,2.739,5.12
		c-1.01-0.032-1.958-0.309-2.788-0.77C1.205,8.592,1.205,8.619,1.205,8.645c0,2.979,2.122,5.465,4.938,6.029
		C5.626,14.815,5.082,14.89,4.52,14.89c-0.397,0-0.782-0.039-1.157-0.11c0.783,2.443,3.056,4.221,5.75,4.27
		c-2.107,1.651-4.761,2.633-7.644,2.633c-0.497,0-0.987-0.028-1.469-0.085C2.724,23.342,5.958,24.36,9.435,24.36"/>
</g>
</svg>
