<?xml version="1.0" encoding="utf-8"?>
<!-- Generator: Adobe Illustrator 20.0.0, SVG Export Plug-In . SVG Version: 6.00 Build 0)  -->
<svg version="1.1" id="レイヤー_1" xmlns="http://www.w3.org/2000/svg" xmlns:xlink="http://www.w3.org/1999/xlink" x="0px"
	 y="0px" width="26px" height="26px" viewBox="0 0 26 26" enable-background="new 0 0 26 26" xml:space="preserve">
<g>
	<path d="M24.565,0H1.435C0.642,0,0,0.643,0,1.435v23.13C0,25.357,0.642,26,1.435,26h12.452V15.932h-3.388v-3.924h3.388V9.113
		c0-3.357,2.051-5.186,5.047-5.186c1.435,0,2.668,0.107,3.028,0.154v3.51l-2.078,0.001c-1.629,0-1.944,0.774-1.944,1.91v2.506h3.885
		l-0.506,3.924H17.94V26h6.625C25.357,26,26,25.357,26,24.565V1.435C26,0.643,25.357,0,24.565,0"/>
</g>
</svg>
